# Blender v2.79 (sub 0) OBJ File: 'level1.blend'
# www.blender.org
mtllib level1.mtl
o Plane.038
v -37.738480 10.000000 -53.181923
v -91.574463 10.000000 -19.450743
v -37.738480 0.000000 -53.181923
v -91.574463 0.000000 -19.450743
vn 0.5309 0.0000 0.8474
usemtl Material.002
s off
f 2//1 3//1 1//1
f 2//1 4//1 3//1
o Plane.037
v -72.729263 0.000000 42.376740
v -91.421326 0.000000 -19.583120
v -72.729263 10.000000 42.376740
v -91.421326 10.000000 -19.583120
vn 0.9574 0.0000 -0.2888
usemtl Material.005
s off
f 6//2 7//2 5//2
f 6//2 8//2 7//2
o Plane.036
v -72.786057 10.000000 42.367409
v -42.032291 10.000000 67.944862
v -72.786057 0.000000 42.367409
v -42.032291 0.000000 67.944862
vn 0.6394 0.0000 -0.7688
usemtl Material
s off
f 10//3 11//3 9//3
f 10//3 12//3 11//3
o Plane.035_Plane.017
v -1.704486 10.000000 -23.233891
v -29.357677 10.000000 -38.470631
v -1.704486 0.000000 -23.233891
v -29.357677 0.000000 -38.470631
vn -0.4826 0.0000 0.8758
usemtl Material.003
s off
f 14//4 15//4 13//4
f 14//4 16//4 15//4
o Plane.034_Plane.016
v -29.395140 10.000000 -38.516594
v -6.849573 10.000000 -43.519623
v -29.395140 0.000000 -38.516594
v -6.849573 0.000000 -43.519623
vn -0.2166 0.0000 -0.9763
usemtl Material.002
s off
f 18//5 19//5 17//5
f 18//5 20//5 19//5
o Plane.033_Plane.015
v -6.823137 10.000000 -43.543289
v 13.085768 10.000000 -28.374199
v -6.823137 0.000000 -43.543289
v 13.085768 0.000000 -28.374199
vn 0.6061 0.0000 -0.7954
usemtl Material
s off
f 22//6 23//6 21//6
f 22//6 24//6 23//6
o Plane.032_Plane.014
v 14.944409 10.000000 -54.106533
v -38.920631 10.000000 -52.544888
v 14.944409 0.000000 -54.106533
v -38.920631 0.000000 -52.544888
vn 0.0290 0.0000 0.9996
usemtl Material.006
s off
f 26//7 27//7 25//7
f 26//7 28//7 27//7
o Plane.031_Plane.013
v -32.152382 0.000000 50.465881
v -42.152382 0.000000 67.786392
v -32.152382 10.000000 50.465881
v -42.152382 10.000000 67.786392
vn -0.8660 0.0000 -0.5000
usemtl Material.001
s off
f 30//8 31//8 29//8
f 30//8 32//8 31//8
o Plane.030_Plane.012
v -54.977646 10.000000 40.288666
v -58.703255 10.000000 26.793488
v -54.977646 0.000000 40.288666
v -58.703255 0.000000 26.793488
vn -0.9639 0.0000 0.2661
usemtl Material.003
s off
f 34//9 35//9 33//9
f 34//9 36//9 35//9
o Plane.029_Plane.011
v -58.473782 10.000000 27.520332
v -70.853523 10.000000 -10.214958
v -58.473782 0.000000 27.520332
v -70.853523 0.000000 -10.214958
vn -0.9502 0.0000 0.3117
usemtl Material.002
s off
f 38//10 39//10 37//10
f 38//10 40//10 39//10
o Plane.028_Plane.010
v -62.967499 0.000000 -28.610853
v -70.870712 0.000000 -10.238615
v -62.967499 10.000000 -28.610853
v -70.870712 10.000000 -10.238615
vn -0.9186 0.0000 -0.3952
usemtl Material.001
s off
f 42//11 43//11 41//11
f 42//11 44//11 43//11
o Text
v 29.602613 8.514402 -29.305471
v 29.602613 6.732402 -29.305471
v 29.602613 6.732402 -29.011471
v 29.602613 8.514402 -29.011471
v 29.602613 8.514402 -28.303471
v 29.602613 8.778402 -28.303471
v 29.602613 8.778402 -30.013472
v 29.602613 8.514402 -30.013472
v 29.602613 6.732402 -27.730473
v 29.602613 8.778402 -27.730473
v 29.602613 8.778402 -28.024471
v 29.602613 6.732402 -28.024471
v 29.602613 6.732402 -27.496471
v 29.602613 6.732402 -27.142471
v 29.602613 7.578402 -26.446472
v 29.602613 6.732402 -25.741472
v 29.602613 6.732402 -25.384472
v 29.602613 7.791402 -26.266472
v 29.602613 8.778402 -25.447472
v 29.602613 8.778402 -25.804472
v 29.602613 7.998402 -26.446472
v 29.602613 8.778402 -27.085472
v 29.602613 8.778402 -27.439472
v 29.602613 7.791402 -26.623472
v 29.602613 8.514402 -24.397472
v 29.602613 7.896402 -24.397472
v 29.602613 7.896402 -25.234472
v 29.602613 7.632402 -25.234472
v 29.602613 7.632402 -24.397472
v 29.602613 6.996402 -24.397472
v 29.602613 6.996402 -25.291471
v 29.602613 6.732402 -25.291471
v 29.602613 6.732402 -24.103472
v 29.602613 8.778402 -24.103472
v 29.602613 8.778402 -25.264471
v 29.602613 8.514402 -25.264471
v 29.102613 8.514402 -29.305471
v 29.102613 6.732402 -29.305471
v 29.102613 6.732402 -29.011471
v 29.102613 8.514402 -29.011471
v 29.102613 8.514402 -28.303471
v 29.102613 8.778402 -28.303471
v 29.102613 8.778402 -30.013472
v 29.102613 8.514402 -30.013472
v 29.102613 6.732402 -27.730473
v 29.102613 8.778402 -27.730473
v 29.102613 8.778402 -28.024471
v 29.102613 6.732402 -28.024471
v 29.102613 6.732402 -27.496471
v 29.102613 6.732402 -27.142471
v 29.102613 7.578402 -26.446472
v 29.102613 6.732402 -25.741472
v 29.102613 6.732402 -25.384472
v 29.102613 7.791402 -26.266472
v 29.102613 8.778402 -25.447472
v 29.102613 8.778402 -25.804472
v 29.102613 7.998402 -26.446472
v 29.102613 8.778402 -27.085472
v 29.102613 8.778402 -27.439472
v 29.102613 7.791402 -26.623472
v 29.102613 8.514402 -24.397472
v 29.102613 7.896402 -24.397472
v 29.102613 7.896402 -25.234472
v 29.102613 7.632402 -25.234472
v 29.102613 7.632402 -24.397472
v 29.102613 6.996402 -24.397472
v 29.102613 6.996402 -25.291471
v 29.102613 6.732402 -25.291471
v 29.102613 6.732402 -24.103472
v 29.102613 8.778402 -24.103472
v 29.102613 8.778402 -25.264471
v 29.102613 8.514402 -25.264471
v 29.102613 8.514402 -24.397472
v 29.602613 8.514402 -24.397472
v 29.102613 7.896402 -24.397472
v 29.602613 7.896402 -24.397472
v 29.102613 7.896402 -25.234472
v 29.602613 7.896402 -25.234472
v 29.102613 7.632402 -25.234472
v 29.602613 7.632402 -25.234472
v 29.102613 7.632402 -24.397472
v 29.602613 7.632402 -24.397472
v 29.102613 6.996402 -24.397472
v 29.602613 6.996402 -24.397472
v 29.102613 6.996402 -25.291471
v 29.602613 6.996402 -25.291471
v 29.102613 6.732402 -25.291471
v 29.602613 6.732402 -25.291471
v 29.102613 6.732402 -24.103472
v 29.602613 6.732402 -24.103472
v 29.102613 8.778402 -24.103472
v 29.602613 8.778402 -24.103472
v 29.102613 8.778402 -25.264471
v 29.602613 8.778402 -25.264471
v 29.102613 8.514402 -25.264471
v 29.602613 8.514402 -25.264471
v 29.102613 6.732402 -27.496471
v 29.602613 6.732402 -27.496471
v 29.102613 6.732402 -27.142471
v 29.602613 6.732402 -27.142471
v 29.102613 7.578402 -26.446472
v 29.602613 7.578402 -26.446472
v 29.102613 6.732402 -25.741472
v 29.602613 6.732402 -25.741472
v 29.102613 6.732402 -25.384472
v 29.602613 6.732402 -25.384472
v 29.102613 7.791402 -26.266472
v 29.602613 7.791402 -26.266472
v 29.102613 8.778402 -25.447472
v 29.602613 8.778402 -25.447472
v 29.102613 8.778402 -25.804472
v 29.602613 8.778402 -25.804472
v 29.102613 7.998402 -26.446472
v 29.602613 7.998402 -26.446472
v 29.102613 8.778402 -27.085472
v 29.602613 8.778402 -27.085472
v 29.102613 8.778402 -27.439472
v 29.602613 8.778402 -27.439472
v 29.102613 7.791402 -26.623472
v 29.602613 7.791402 -26.623472
v 29.102613 6.732402 -27.730473
v 29.602613 6.732402 -27.730473
v 29.102613 8.778402 -27.730473
v 29.602613 8.778402 -27.730473
v 29.102613 8.778402 -28.024471
v 29.602613 8.778402 -28.024471
v 29.102613 6.732402 -28.024471
v 29.602613 6.732402 -28.024471
v 29.102613 8.514402 -29.305471
v 29.602613 8.514402 -29.305471
v 29.102613 6.732402 -29.305471
v 29.602613 6.732402 -29.305471
v 29.102613 6.732402 -29.011471
v 29.602613 6.732402 -29.011471
v 29.102613 8.514402 -29.011471
v 29.602613 8.514402 -29.011471
v 29.102613 8.514402 -28.303471
v 29.602613 8.514402 -28.303471
v 29.102613 8.778402 -28.303471
v 29.602613 8.778402 -28.303471
v 29.102613 8.778402 -30.013472
v 29.602613 8.778402 -30.013472
v 29.102613 8.514402 -30.013472
v 29.602613 8.514402 -30.013472
vn 1.0000 0.0000 0.0000
vn 0.0000 0.0000 1.0000
vn -1.0000 0.0000 0.0000
vn 0.0000 0.7071 -0.7071
vn 0.0000 -0.7071 -0.7071
vn 0.0000 -0.7071 0.7071
vn 0.0000 0.7071 0.7071
vn 0.0000 -0.9042 0.4270
vn 0.0000 -0.4266 -0.9044
vn 0.0000 -1.0000 0.0031
vn 0.0000 -0.9056 -0.4241
vn 0.0000 -0.4243 0.9055
vn 0.0000 0.0009 1.0000
vn 0.0000 0.4251 0.9051
vn 0.0000 0.9043 -0.4269
vn 0.0000 1.0000 0.0011
vn 0.0000 0.9038 0.4279
vn 0.0000 0.4259 -0.9048
vn 0.0000 -0.0007 -1.0000
usemtl Material.005
s off
f 49//12 51//12 50//12
f 49//12 52//12 51//12
f 48//13 52//13 49//13
f 47//12 45//12 48//12
f 45//13 52//13 48//13
f 47//12 46//12 45//12
f 53//12 55//12 54//12
f 53//12 56//12 55//12
f 62//12 64//12 63//12
f 62//12 65//12 64//12
f 65//12 67//12 66//12
f 65//12 68//12 67//12
f 62//12 68//12 65//12
f 61//12 68//12 62//12
f 61//12 59//12 68//12
f 59//12 57//12 68//12
f 61//12 60//12 59//12
f 58//12 57//12 59//12
f 77//12 69//12 78//12
f 69//12 79//12 78//12
f 69//12 80//12 79//12
f 77//12 70//12 69//12
f 77//12 73//12 70//12
f 73//12 71//12 70//12
f 73//12 72//12 71//12
f 77//12 74//12 73//12
f 77//12 75//12 74//12
f 77//12 76//12 75//12
f 87//14 85//14 86//14
f 88//14 85//14 87//14
f 88//13 84//13 85//13
f 81//14 83//14 84//14
f 88//13 81//13 84//13
f 82//14 83//14 81//14
f 91//14 89//14 90//14
f 92//14 89//14 91//14
f 100//14 98//14 99//14
f 101//14 98//14 100//14
f 103//14 101//14 102//14
f 104//14 101//14 103//14
f 104//14 98//14 101//14
f 104//14 97//14 98//14
f 95//14 97//14 104//14
f 93//14 95//14 104//14
f 96//14 97//14 95//14
f 93//14 94//14 95//14
f 105//14 113//14 114//14
f 115//14 105//14 114//14
f 116//14 105//14 115//14
f 106//14 113//14 105//14
f 109//14 113//14 106//14
f 107//14 109//14 106//14
f 108//14 109//14 107//14
f 110//14 113//14 109//14
f 111//14 113//14 110//14
f 112//14 113//14 111//14
s 1
f 120//15 117//16 118//16
f 122//15 119//15 120//15
f 124//16 121//15 122//15
f 126//16 123//16 124//16
f 128//15 125//16 126//16
f 130//15 127//15 128//15
f 132//16 129//15 130//15
f 134//17 131//16 132//16
f 136//18 133//17 134//17
f 138//15 135//18 136//18
f 140//16 137//15 138//15
f 118//16 139//16 140//16
f 144//19 141//20 142//20
f 146//21 143//19 144//19
f 148//22 145//21 146//21
f 150//23 147//22 148//22
f 152//24 149//23 150//23
f 154//25 151//24 152//24
f 156//26 153//25 154//25
f 158//27 155//26 156//26
f 160//28 157//27 158//27
f 162//29 159//28 160//28
f 164//30 161//29 162//29
f 142//20 163//30 164//30
f 168//18 165//17 166//17
f 170//15 167//18 168//18
f 172//16 169//15 170//15
f 166//17 171//16 172//16
f 176//16 173//16 174//16
f 178//17 175//16 176//16
f 180//17 177//17 178//17
f 182//17 179//17 180//17
f 184//18 181//17 182//17
f 186//15 183//18 184//18
f 188//16 185//15 186//15
f 174//16 187//16 188//16
f 120//15 119//15 117//16
f 122//15 121//15 119//15
f 124//16 123//16 121//15
f 126//16 125//16 123//16
f 128//15 127//15 125//16
f 130//15 129//15 127//15
f 132//16 131//16 129//15
f 134//17 133//17 131//16
f 136//18 135//18 133//17
f 138//15 137//15 135//18
f 140//16 139//16 137//15
f 118//16 117//16 139//16
f 144//19 143//19 141//20
f 146//21 145//21 143//19
f 148//22 147//22 145//21
f 150//23 149//23 147//22
f 152//24 151//24 149//23
f 154//25 153//25 151//24
f 156//26 155//26 153//25
f 158//27 157//27 155//26
f 160//28 159//28 157//27
f 162//29 161//29 159//28
f 164//30 163//30 161//29
f 142//20 141//20 163//30
f 168//18 167//18 165//17
f 170//15 169//15 167//18
f 172//16 171//16 169//15
f 166//17 165//17 171//16
f 176//16 175//16 173//16
f 178//17 177//17 175//16
f 180//17 179//17 177//17
f 182//17 181//17 179//17
f 184//18 183//18 181//17
f 186//15 185//15 183//18
f 188//16 187//16 185//15
f 174//16 173//16 187//16
o Cube
v 29.400000 0.000000 -18.500000
v 29.400000 8.000000 -18.500000
v 29.400000 0.000000 -23.500000
v 29.400000 8.000000 -23.500000
v 29.600000 0.000000 -18.500000
v 29.600000 8.000000 -18.500000
v 29.600000 0.000000 -23.500000
v 29.600000 8.000000 -23.500000
vn -1.0000 0.0000 0.0000
vn 0.0000 0.0000 -1.0000
vn 1.0000 0.0000 0.0000
vn 0.0000 0.0000 1.0000
vn 0.0000 -1.0000 0.0000
vn 0.0000 1.0000 0.0000
usemtl Material.007
s off
f 190//31 191//31 189//31
f 192//32 195//32 191//32
f 196//33 193//33 195//33
f 194//34 189//34 193//34
f 195//35 189//35 191//35
f 192//36 194//36 196//36
f 190//31 192//31 191//31
f 192//32 196//32 195//32
f 196//33 194//33 193//33
f 194//34 190//34 189//34
f 195//35 193//35 189//35
f 192//36 190//36 194//36
o Plane.027_Plane.035
v 37.313881 10.000000 38.320511
v 24.934143 10.000000 0.585218
v 37.313881 0.000000 38.320511
v 24.934143 0.000000 0.585218
vn -0.9502 0.0000 0.3117
usemtl Material.002
s off
f 198//37 199//37 197//37
f 198//37 200//37 199//37
o Plane.026_Plane.034
v 17.048958 10.000000 72.404526
v 37.229542 10.000000 37.868393
v 17.048958 0.000000 72.404526
v 37.229542 0.000000 37.868393
vn -0.8634 0.0000 -0.5045
usemtl Material
s off
f 202//38 203//38 201//38
f 202//38 204//38 203//38
o Plane.025_Plane.033
v -4.912695 0.000000 44.968559
v 12.337450 0.000000 44.968559
v -4.912695 10.000000 44.968559
v 12.337450 10.000000 44.968559
vn 0.0000 0.0000 1.0000
usemtl Material.001
s off
f 206//39 207//39 205//39
f 206//39 208//39 207//39
o Plane.024_Plane.032
v -31.557163 0.000000 11.570290
v -41.557163 0.000000 28.890797
v -31.557163 10.000000 11.570290
v -41.557163 10.000000 28.890797
vn -0.8660 0.0000 -0.5000
usemtl Material.001
s off
f 210//40 211//40 209//40
f 210//40 212//40 211//40
o Plane.023_Plane.031
v -32.174980 10.000000 50.461151
v 17.053854 10.000000 72.379242
v -32.174980 0.000000 50.461151
v 17.053854 0.000000 72.379242
vn 0.4067 0.0000 -0.9135
usemtl Material.006
s off
f 214//41 215//41 213//41
f 214//41 216//41 215//41
o Plane.022_Plane.030
v -4.912455 10.000000 44.948410
v -41.542519 10.000000 28.878622
v -4.912455 0.000000 44.948410
v -41.542519 0.000000 28.878622
vn -0.4017 0.0000 0.9158
usemtl Material
s off
f 218//42 219//42 217//42
f 218//42 220//42 219//42
o Plane.021_Plane.029
v -24.608276 10.000000 -17.464851
v -49.900085 10.000000 7.473043
v -24.608276 0.000000 -17.464851
v -49.900085 0.000000 7.473043
vn 0.7021 0.0000 0.7121
usemtl Material.003
s off
f 222//43 223//43 221//43
f 222//43 224//43 223//43
o Plane.020_Plane.028
v -49.852303 10.000000 7.404388
v -54.995438 10.000000 40.307472
v -49.852303 0.000000 7.404388
v -54.995438 0.000000 40.307472
vn 0.9880 0.0000 0.1544
usemtl Material.002
s off
f 226//44 227//44 225//44
f 226//44 228//44 227//44
o Plane.019_Plane.027
v -62.985245 10.000000 -28.609434
v -24.567116 10.000000 -17.471785
v -62.985245 0.000000 -28.609434
v -24.567116 0.000000 -17.471785
vn 0.2784 0.0000 -0.9605
usemtl Material.006
s off
f 230//45 231//45 229//45
f 230//45 232//45 231//45
o Plane.017_Plane.026
v 14.772109 0.000000 -54.193054
v 29.613483 0.000000 -40.786575
v 14.772109 10.000000 -54.193054
v 29.613483 10.000000 -40.786575
vn -0.6703 0.0000 0.7421
usemtl Material.001
s off
f 234//46 235//46 233//46
f 234//46 236//46 235//46
o Plane.016_Plane.025
v 29.588713 10.000000 -17.751156
v 29.588713 10.000000 -40.845154
v 29.588713 0.000000 -17.751156
v 29.588713 0.000000 -40.845154
vn -1.0000 0.0000 0.0000
usemtl Material.002
s off
f 238//47 239//47 237//47
f 238//47 240//47 239//47
o Plane.015_Plane.024
v 15.647020 10.000000 -18.749191
v 29.611509 10.000000 -17.752691
v 15.647020 0.000000 -18.749189
v 29.611509 0.000000 -17.752689
vn 0.0712 -0.0000 -0.9975
usemtl Material.005
s off
f 242//48 243//48 241//48
f 242//48 244//48 243//48
o Plane.014_Plane.023
v 13.063476 10.000000 -28.409073
v 15.651667 10.000000 -18.749813
v 13.063475 0.000000 -28.409073
v 15.651666 0.000000 -18.749813
vn 0.9659 0.0000 -0.2588
usemtl Material.003
s off
f 246//49 247//49 245//49
f 246//49 248//49 247//49
o Plane.013_Plane.022
v -21.561016 10.000000 -8.415936
v -2.065480 10.000000 -24.112743
v -21.561016 0.000000 -8.415936
v -2.065480 0.000000 -24.112743
vn -0.6271 0.0000 -0.7789
usemtl Material
s off
f 250//50 251//50 249//50
f 250//50 252//50 251//50
o Plane.012_Plane.021
v 19.999252 10.000000 31.553514
v 12.353497 10.000000 44.967995
v 19.999252 0.000000 31.553514
v 12.353496 0.000000 44.967995
vn 0.8688 0.0000 0.4952
usemtl Material.003
s off
f 254//51 255//51 253//51
f 254//51 256//51 255//51
o Plane.011_Plane.020
v -31.557163 0.000000 11.570290
v -41.557163 0.000000 28.890797
v -31.557163 10.000000 11.570290
v -41.557163 10.000000 28.890797
vn -0.8660 0.0000 -0.5000
usemtl Material.001
s off
f 258//52 259//52 257//52
f 258//52 260//52 259//52
o Plane.010_Plane.019
v -21.568436 0.000000 -8.424360
v -21.568436 0.000000 1.575640
v -21.568436 10.000000 -8.424360
v -21.568436 10.000000 1.575640
vn -1.0000 0.0000 0.0000
usemtl Material.005
s off
f 262//53 263//53 261//53
f 262//53 264//53 263//53
o Plane.018
v -10.005585 10.000000 21.550039
v -21.552586 10.000000 1.550049
v -10.005585 0.000000 21.550039
v -21.552586 0.000000 1.550049
vn -0.8660 0.0000 0.5000
usemtl Material.002
s off
f 266//54 267//54 265//54
f 266//54 268//54 267//54
o Plane.009
v -31.548500 10.000000 11.550003
v -20.001499 10.000000 31.549995
v -31.548500 0.000000 11.550003
v -20.001499 0.000000 31.549995
vn 0.8660 0.0000 -0.5000
usemtl Material.006
s off
f 270//55 271//55 269//55
f 270//55 272//55 271//55
o Plane.008
v -20.000000 10.000000 31.547001
v 20.000000 10.000000 31.547001
v -20.000000 0.000000 31.547001
v 20.000000 0.000000 31.547001
vn 0.0000 0.0000 -1.0000
usemtl Material
s off
f 274//56 275//56 273//56
f 274//56 276//56 275//56
o Plane.007
v 24.965099 10.000000 0.594037
v 21.544899 10.000000 9.990963
v 24.965099 0.000000 0.594037
v 21.544899 0.000000 9.990963
vn 0.9397 0.0000 0.3420
usemtl Material.005
s off
f 278//57 279//57 277//57
f 278//57 280//57 279//57
o Plane.006
v -10.000000 0.000000 21.547001
v 10.000000 0.000000 21.547001
v -10.000000 10.000000 21.547001
v 10.000000 10.000000 21.547001
vn 0.0000 0.0000 1.0000
usemtl Material.001
s off
f 282//58 283//58 281//58
f 282//58 284//58 283//58
o Plane.005
v -93.000000 10.000006 -62.000000
v 47.000000 10.000006 -62.000000
v -93.000000 9.999994 78.000000
v 47.000000 9.999994 78.000000
vn 0.0000 -1.0000 -0.0000
usemtl Material.004
s off
f 286//59 287//59 285//59
f 286//59 288//59 287//59
o Plane.004
v -93.000000 0.000000 78.000000
v 47.000000 0.000000 78.000000
v -93.000000 0.000000 -62.000000
v 47.000000 0.000000 -62.000000
vn 0.0000 1.0000 0.0000
usemtl Material.004
s off
f 290//60 291//60 289//60
f 290//60 292//60 291//60
o Plane.003
v -9.999999 10.000000 -10.000000
v -10.000000 10.000000 10.000000
v -10.000000 0.000000 -10.000000
v -10.000001 0.000000 10.000000
vn 1.0000 0.0000 0.0000
usemtl Material
s off
f 294//61 295//61 293//61
f 294//61 296//61 295//61
o Plane.002
v 21.547001 10.000000 9.999995
v 10.000000 10.000000 -9.999995
v 21.547001 0.000000 9.999995
v 10.000000 0.000000 -9.999995
vn -0.8660 0.0000 0.5000
usemtl Material.003
s off
f 298//62 299//62 297//62
f 298//62 300//62 299//62
o Plane.001
v -9.999995 10.000000 10.000000
v 9.999995 10.000000 21.547001
v -9.999995 0.000000 10.000000
v 9.999995 0.000000 21.547001
vn 0.5000 0.0000 -0.8660
usemtl Material.002
s off
f 302//63 303//63 301//63
f 302//63 304//63 303//63
o Plane
v -10.000000 0.000000 -10.000000
v 10.000000 0.000000 -10.000000
v -10.000000 10.000000 -10.000000
v 10.000000 10.000000 -10.000000
vn 0.0000 0.0000 1.0000
usemtl Material.001
s off
f 306//64 307//64 305//64
f 306//64 308//64 307//64
